<?xml version="1.0" encoding="utf-8"?>
<!-- Svg Vector Icons : http://www.onlinewebfonts.com/icon -->
<!DOCTYPE svg PUBLIC "-//W3C//DTD SVG 1.1//EN" "http://www.w3.org/Graphics/SVG/1.1/DTD/svg11.dtd">
<svg version="1.1" xmlns="http://www.w3.org/2000/svg" xmlns:xlink="http://www.w3.org/1999/xlink" x="0px" y="0px" fill="red" viewBox="0 0 1000 1000" enable-background="new 0 0 1000 1000" xml:space="preserve">
<metadata> Svg Vector Icons : http://www.onlinewebfonts.com/icon </metadata>
<g><path d="M439.8,613.3L439.8,613.3c-33.5-10.5-52.3-46.5-41.8-80l71.7-228.8c10.5-33.5,46.5-52.3,80-41.8l0,0c33.5,10.5,52.3,46.5,41.8,80l-71.7,228.8C509.3,604.9,473.3,623.8,439.8,613.3L439.8,613.3z"/><path d="M696.8,357.3l-0.6-1.5c-6.2-15.4-19.5-23-29.5-16.8l-56,34.3L572,496.3l117.7-99.7C699.8,390.4,702.9,372.7,696.8,357.3L696.8,357.3z"/><path d="M301.3,720.1l-0.4-1.6c-4-16.5,6.3-33.2,22.8-37.2l219.1-79.7c16.5-4,35.8,32.8,39.7,49.3l0.4,1.6c4,16.5-6.3,33.2-22.8,37.2l-221.6,53.2C322,746.8,305.3,736.6,301.3,720.1L301.3,720.1z"/><path d="M378,762.2l-43.3,108c-6.9,12.4-0.2,26.8,14.9,32l1.4,0.5c15.2,5.2,33.2-0.7,40.2-13.1l81.2-145.1L378,762.2L378,762.2z"/><path d="M401.9,530.5l14.5-18.5c16.1-20.5,44.5-25.3,63.2-10.6l101.9,109.5c18.3,21.7,20.4,39.1,4.3,59.6l-2.2,2.7c-16.1,20.5-44.5,25.3-63.2,10.6l-113.8-89.4C387.9,579.8,385.8,551,401.9,530.5L401.9,530.5z"/><path d="M544.3,277l5.9,14.5c6.6,16-5.4,36.3-26.7,45l-138.3,40.1c-26.4,6.7-40.6,3.6-47.2-12.4l-0.8-2.2c-6.6-16,5.4-36.3,26.7-45l129.8-53.2C515,255,537.8,261,544.3,277L544.3,277z"/><path d="M466.9,172c0,20,8.3,40,22.4,54.1c14.2,14.2,34.1,22.4,54.1,22.4c20,0,39.9-8.3,54.1-22.4C611.7,212,620,192.1,620,172c0-20-8.3-40-22.4-54.1c-14.2-14.2-34.1-22.4-54.1-22.4c-20,0-40,8.2-54.1,22.4C475.2,132.1,466.9,152,466.9,172L466.9,172z"/><path d="M460.5,507.4l-1.3,0.6c-13.6,6.2-28.6,2.5-33.5-8.1l-87.4-135.7c-4.9-10.6,24.4-31.7,38-37.9l1.3-0.6c13.6-6.2,28.6-2.5,33.5,8.1l65.3,143C481.2,487.5,474.1,501.3,460.5,507.4L460.5,507.4z"/><path d="M500,10C229.4,10,10,229.4,10,500s219.4,490,490,490s490-219.4,490-490S770.6,10,500,10z M500,942.2c-244.2,0-442.2-198-442.2-442.2c0-244.2,198-442.2,442.2-442.2c244.2,0,442.2,198,442.2,442.2C942.2,744.2,744.2,942.2,500,942.2z"/></g>
</svg>